<svg xmlns="http://www.w3.org/2000/svg" width="25.524" height="24.559" viewBox="0 0 25.524 24.559">
  <g id="Grupo_11408" transform="translate(-16.6 -21.65)">
    <path id="Trazado_6981" d="M30.661,42.286v1.425H18.121V63.406H36.735c1.425,0,1.884-.45,1.884-1.894V52.119h1.358a1.029,1.029,0,0,1,.067.3c.01,3.2.029,6.4,0,9.594a2.737,2.737,0,0,1-2.63,2.841h-.2c-6.543.019-13.076.01-19.618.019-.717,0-.995-.316-.995-1.014q.014-10.244,0-20.5c0-.631.2-1.052.88-1.052C21.842,42.276,26.213,42.286,30.661,42.286Z" transform="translate(0 -18.66)" fill="#fb1736"/>
    <path id="Trazado_6982" d="M87.437,29c-3.549,3.635-7.155,7.2-10.751,10.79a1.682,1.682,0,0,1-.756.44c-2.229.6-4.477,1.2-6.715,1.779-1.033.268-1.492-.182-1.224-1.224.564-2.152,1.138-4.3,1.76-6.437a2.847,2.847,0,0,1,.717-1.119q5.165-5.194,10.35-10.369a3.209,3.209,0,0,1,4.515-.507,3.628,3.628,0,0,1,.507.507,18.967,18.967,0,0,1,1.626,1.655C88.891,26.179,88.891,27.519,87.437,29Zm-15.4,5.1,3.893,4.056,8.523-8.5-3.97-3.989Zm9.785-9.91,4.017,4.094c1.3-1.081,1.349-1.8.153-3l-1.167-1.167c-1.215-1.205-1.913-1.177-3,.077ZM70.995,35.9l-1.148,4.295,4.161-1.138Z" transform="translate(-46.407 0)" fill="#fb1736"/>
  </g>
</svg>
