<svg id="basura-02" xmlns="http://www.w3.org/2000/svg" width="19.534" height="24.559" viewBox="0 0 19.534 24.559">
  <path id="Trazado_6261" data-name="Trazado 6261" d="M57.587,88.241c2.425,0,4.851-.009,7.267,0,1.556.009,2.05.558,1.9,2.123-.43,4.622-.851,9.253-1.3,13.875-.137,1.4-.677,1.913-2.05,1.913q-5.835.027-11.678.009c-1.419,0-1.986-.513-2.132-2q-.686-7.056-1.309-14.113a1.482,1.482,0,0,1,1.666-1.8C52.5,88.222,55.043,88.241,57.587,88.241Zm1.565,15.9V91.609H55.994v12.529Zm-4.924-.009V91.554H50.97c.275,4.228.549,8.393.815,12.575Zm6.681-12.575v12.538h2.4c.265-4.21.522-8.347.787-12.538Z" transform="translate(-47.823 -81.608)" fill="#fb1736"/>
  <path id="Trazado_6262" data-name="Trazado 6262" d="M62.222,22.275H43.945a.621.621,0,0,1-.622-.577,2.275,2.275,0,0,1,2.407-2.6,4.221,4.221,0,0,1,.833,0c1.162.174,1.721-.2,1.748-1.492.027-1.391.558-1.776,1.959-1.776,1.785-.009,3.569-.009,5.363,0,1.629,0,2.059.339,2.169,1.968.064,1.007.412,1.373,1.446,1.327a5.365,5.365,0,0,1,2.416.357,2.087,2.087,0,0,1,1.181,2.2A.63.63,0,0,1,62.222,22.275ZM49.711,18.989h6.663c-.11-.567-.2-1.016-.293-1.483H49.958C49.876,18.028,49.8,18.486,49.711,18.989Z" transform="translate(-43.315 -15.825)" fill="#fb1736"/>
</svg>
